<?xml version="1.0" encoding="utf-8"?>
<!-- Generator: Adobe Illustrator 18.1.1, SVG Export Plug-In . SVG Version: 6.00 Build 0)  -->
<svg version="1.1" id="Layer_1" xmlns="http://www.w3.org/2000/svg" xmlns:xlink="http://www.w3.org/1999/xlink" x="0px" y="0px"
	 viewBox="0 0 40 40" enable-background="new 0 0 40 40" xml:space="preserve">
<g>
	<path fill="#3C3C3B" d="M30.6,34.6c0,0,0-1.2,0-1.2c0-1.1-0.7-1.9-2-1.9c-1.3,0-2,0.8-2,2.2c0,1.3,0.5,2,1.5,2.2
		c0.7,0.1,1.5-0.1,1.9-0.6c0.1,0.2,0.3,0.4,0.5,0.5c0.4,0.3,0.9-0.2,0.5-0.5C30.8,35.2,30.6,34.9,30.6,34.6z M29.8,34.5
		c0,0.2-0.4,0.9-1.2,0.9c-0.8,0-1.2-0.5-1.2-1.5c0-1,0.4-1.5,1.2-1.5c0.7,0,1.2,0.4,1.2,1.2V34.5z"/>
	<path fill="#3C3C3B" d="M11.2,31.6c-0.2,0-0.4,0.2-0.4,0.4v2.3c0,0.4-0.2,1.1-0.9,1.1c-0.7,0-0.9-0.6-0.9-1.1V32
		c0-0.2-0.2-0.4-0.4-0.4c-0.2,0-0.4,0.2-0.4,0.4v2.3c0,0.4-0.2,1.1-0.9,1.1c-0.7,0-0.9-0.7-0.9-1.1V32c0-0.2-0.2-0.4-0.4-0.4
		S5.7,31.8,5.7,32v2.4c0,1.7,1.6,1.7,1.7,1.7c0.1,0,0.8,0,1.3-0.5c0.5,0.5,1.2,0.5,1.3,0.5c0.1,0,1.7,0,1.7-1.7V32
		C11.6,31.8,11.4,31.6,11.2,31.6z"/>
	<path fill="#3C3C3B" d="M14.4,31.6c-1.3,0-2,0.8-2,2.2c0,1.4,0.7,2.2,2,2.2c1.3,0,2-0.8,2-2.2C16.5,32.4,15.8,31.6,14.4,31.6z
		 M14.4,35.4c-0.8,0-1.3-0.5-1.3-1.5c0-1,0.4-1.5,1.3-1.5c0.8,0,1.3,0.5,1.3,1.5C15.7,34.9,15.3,35.4,14.4,35.4z"/>
	<path fill="#3C3C3B" d="M19.2,31.6c-1.3,0-2,0.8-2,2.2l0,1.8c0,0.2,0.2,0.4,0.4,0.4c0.2,0,0.4-0.2,0.4-0.4v-1.9
		c0-1,0.4-1.4,1.2-1.4c0.8,0,1.2,0.5,1.2,1.4v1.9c0,0.2,0.2,0.4,0.4,0.4c0.2,0,0.4-0.2,0.4-0.4l0-1.8C21.2,32.4,20.5,31.6,19.2,31.6
		z"/>
	<path fill="#3C3C3B" d="M24,31.6c-1.3,0-2,0.8-2,2.2c0,1.5,0.7,2.2,2,2.2c0.4,0,0.9-0.1,1.2-0.4v0.4c0,0.9-0.8,1.1-1.2,1.1
		c-0.5,0-0.8-0.2-1-0.4c-0.4-0.4-0.9,0.1-0.6,0.5c0.4,0.4,0.9,0.6,1.6,0.6c1.3,0,2-0.7,2-1.8v-2.6C26,32.3,25.2,31.6,24,31.6z
		 M25.2,34.7c-0.1,0.1-0.4,0.7-1.2,0.7c-0.8,0-1.2-0.5-1.2-1.5c0-1,0.4-1.5,1.2-1.5c0.7,0,1.2,0.4,1.2,1.2V34.7z"/>
	<path fill="#3C3C3B" d="M29.9,2H10.1C7.3,2,5,4.3,5,7.2v16.3c0,2.8,2.3,5.1,5.1,5.1h16.9c5.2,0.1,7.4,4.6,7.9,7.4l0-28.9
		C35,4.3,32.7,2,29.9,2z M30.6,18c0,6.1-5.8,6.1-6,6.1c-0.2,0-2.9,0-4.6-1.8c-1.7,1.9-4.3,1.8-4.6,1.8c-0.3,0-6,0.1-6-6.1V9.4
		c0-0.8,0.6-1.4,1.4-1.4c0.8,0,1.4,0.6,1.4,1.4v8.2c0,1.6,0.6,3.9,3.1,3.9c2.6,0,3.1-2.3,3.1-3.9V9.4C18.6,8.6,19.3,8,20,8
		s1.4,0.6,1.4,1.4v8.3c0,1.6,0.6,3.9,3.1,3.9c2.6,0,3.1-2.4,3.1-3.9V9.4c0-0.8,0.6-1.4,1.4-1.4c0.8,0,1.4,0.6,1.4,1.4V18z"/>
</g>
</svg>
